<svg width="90px" height="90px" viewBox="0 0 90 90" version="1.1" xmlns="http://www.w3.org/2000/svg" xmlns:xlink="http://www.w3.org/1999/xlink">
            <defs></defs>
            <g id="noun" stroke="none" stroke-width="1" fill="none" fill-rule="evenodd">
                <g id="Group" fill="#373737">
                    <path d="M47.049,0 L47.049,2.198 L64.978,2.197 C65.417,0.782 66.629,0.141 68.025,0 C69.845,0 71.321,1.476 71.321,3.296 C71.321,5.117 69.845,6.593 68.025,6.593 C66.27,6.483 65.54,5.73 64.895,4.198 L56.803,4.198 C70.587,8.31 81.455,19.432 85.704,33.098 L85.703,25.063 C84.24,24.62 83.554,23.428 83.407,21.975 C83.407,20.155 84.883,18.679 86.704,18.679 L86.703,18.679 C88.524,18.679 90,20.155 90,21.975 C89.897,23.649 89.185,24.44 87.704,25.063 L87.703,42.951 L89.901,42.951 L89.901,49.346 L87.703,49.346 L87.703,67.233 C89.167,67.676 89.854,68.868 90,70.321 C90,72.141 88.524,73.617 86.704,73.617 C84.883,73.617 83.407,72.141 83.407,70.321 C83.51,68.647 84.222,67.856 85.704,67.233 L85.703,59.001 C80.368,76.904 63.411,89.408 44.852,89.876 L44.852,89.901 L0,89.901 L0,45.049 L0.025,45.049 C0.288,26.355 13.176,9.707 30.9,4.198 L22.808,4.198 C22.359,5.708 21.189,6.44 19.679,6.593 C17.859,6.593 16.383,5.117 16.383,3.296 C16.456,1.37 17.843,0.185 19.679,0 L20.231,0.058 C21.512,0.263 22.147,1.144 22.725,2.198 L40.654,2.198 L40.654,0 L47.049,0 L47.049,0 Z M2,59.001 L2,59.001 L2,87.901 L30.9,87.901 C17.116,83.789 6.249,72.667 2,59.001 L2,59.001 Z M80.479,25.884 C81.147,29.161 80.954,27.565 81.111,30.667 C81.111,42.749 71.317,52.543 59.235,52.543 C54.091,52.379 48.593,50.822 44.852,47.081 L44.852,87.876 C66.45,87.517 82.947,70.186 85.455,49.346 L83.506,49.346 L83.506,42.951 L85.57,42.951 C85.226,36.891 83.194,31.246 80.479,25.884 L80.479,25.884 Z M42.852,47.049 L2.025,47.049 C2.314,69.13 20.974,87.324 42.852,87.876 L42.852,47.049 L42.852,47.049 Z M59.234,10.79 L59.234,10.79 C48.257,10.79 39.358,19.689 39.358,30.667 C39.358,41.644 48.257,50.543 59.235,50.543 C70.212,50.543 79.111,41.644 79.111,30.667 C79.111,19.689 70.212,10.79 59.235,10.79 L59.234,10.79 Z M87.901,47.346 L87.901,44.951 L85.506,44.951 L85.506,47.346 L87.901,47.346 L87.901,47.346 Z M40.654,4.372 C19.287,6.148 3.097,23.914 2.025,45.049 L42.82,45.049 C39.04,41.232 37.62,35.863 37.358,30.667 C37.358,18.585 47.152,8.79 59.235,8.79 C62.336,8.947 60.74,8.754 64.017,9.422 C58.645,6.18 53.149,5.166 47.049,4.397 L47.049,6.395 L40.654,6.395 L40.654,4.372 L40.654,4.372 Z M45.049,2 L42.654,2 L42.654,4.395 L45.049,4.395 L45.049,2 L45.049,2 Z" id="Shape"></path>
                </g>
            </g>
        </svg>
