<svg height="100px" viewBox="292 57 308 357" version="1.1" xmlns="http://www.w3.org/2000/svg" xmlns:xlink="http://www.w3.org/1999/xlink">
    <defs></defs>
    <g id="Group" stroke="none" stroke-width="1" fill="none" fill-rule="evenodd" transform="translate(292.000000, 57.000000)">
        <g id="Shape">
            <path d="M48.682,156.514 C38.293,161.401 10.796,183.4 5.5,189.918 C0,196.436 -1.629,186.252 4.074,169.346 C8.554,155.699 19.962,137.163 39.108,121.276 C50.31,112.11 74.957,98.871 90.029,91.13 C93.085,89.5 132.6,72.798 167.838,64.447 C170.894,63.632 164.172,69.539 163.153,72.798 C157.857,88.278 52.143,154.68 52.143,154.68 L48.682,156.514 L48.682,156.514 Z" fill="#000000"></path>
            <path d="M197.576,343.294 C199.409,354.293 197.78,355.108 186.374,356.534 C174.967,357.96 166.616,353.682 163.561,350.831 C160.505,347.978 159.895,341.665 162.95,335.962 C164.784,332.295 166.617,331.073 167.636,326.592 C168.654,322.315 169.469,321.296 170.283,319.667 C171.097,318.24 171.302,316.814 171.505,306.834 C171.709,296.854 171.505,278.114 172.524,270.171 C173.543,262.024 208.781,273.837 208.781,273.837 C208.781,273.837 200.429,294.613 198.189,299.705 C195.948,304.798 196.152,314.574 196.152,316.611 C196.152,318.648 195.338,322.721 194.726,322.925 C194.115,323.128 196.763,328.424 195.54,331.48 C194.725,334.332 197.373,341.665 197.576,343.294 L197.576,343.294 Z" fill="#000000"></path>
            <path d="M211.02,31.857 C209.797,24.117 211.02,8.839 212.649,6.396 C217.742,-0.53 244.628,-1.344 250.332,6.803 C252.776,10.469 252.572,19.024 252.165,24.524 C251.758,30.023 250.332,41.837 250.128,45.708 C249.925,48.56 220.39,53.04 213.872,45.3 C212.038,43.264 211.02,31.857 211.02,31.857 L211.02,31.857 Z" fill="#000000"></path>
            <path d="M270.904,323.536 C283.329,332.499 292.902,334.128 299.216,337.387 C305.53,340.647 303.901,346.961 293.309,348.794 C284.754,350.423 271.311,347.164 262.349,347.164 C253.387,347.164 233.425,348.183 228.129,344.517 C222.019,340.24 224.666,332.295 224.666,332.295 C226.296,327.815 230.369,317.833 229.147,309.686 C227.925,301.539 226.295,297.058 223.24,289.521 C220.185,281.985 217.945,263.45 220.797,262.431 C223.649,261.412 222.833,262.431 226.5,263.245 C230.166,264.059 234.24,265.282 242.184,265.282 C250.128,265.282 258.886,264.059 261.942,263.449 C264.997,262.838 267.441,262.226 266.422,268.541 C265.404,274.855 262.349,286.669 262.145,295.835 C261.942,305.001 261.942,315.593 262.553,317.426 C263.163,319.259 267.645,321.296 270.904,323.536 L270.904,323.536 Z" fill="#000000"></path>
            <g transform="translate(5.000000, 3.000000)">
                <g transform="translate(0.000000, 48.000000)" fill="#88CE02">
                    <path d="M222.315,1.226 C199.91,20.577 156.524,25.872 92.16,50.722 C75.661,57.036 31.665,75.979 21.073,95.737 C56.718,75.165 69.958,103.477 72.809,132.604 C75.456,159.898 89.104,174.157 124.138,173.341 C160.191,172.527 171.19,193.506 181.17,218.153 C200.52,123.845 231.481,105.514 251.441,89.423 C293.809,54.999 241.665,-5.7 222.315,1.226 L222.315,1.226 Z"></path>
                    <path d="M222.315,1.226 C168.542,19.965 115.379,24.65 52.848,63.147 C37.979,72.313 6.611,93.088 0.5,132.808 C23.312,107.55 76.067,75.776 140.636,55.611 C173.226,45.426 197.058,38.705 225.981,27.502 C223.945,14.465 223.945,9.373 222.315,1.226 L222.315,1.226 Z"></path>
                </g>
                <path d="M290.957,160.846 C290.957,160.846 287.087,174.086 279.347,178.364 C279.347,178.364 273.644,180.401 262.238,174.087 C258.979,172.254 256.535,165.94 256.738,163.902 C256.942,159.013 259.997,156.773 259.997,156.773 C259.997,156.773 263.257,151.273 267.126,151.477 C270.997,151.68 277.515,152.291 279.552,150.458 C281.384,148.421 291.365,154.124 290.957,160.846 L290.957,160.846 Z" fill="#000000"></path>
                <path d="M207.853,32.727 C207.853,32.727 207.039,43.116 205.613,49.633 C205.409,50.856 199.299,51.466 194.817,53.3 C203.372,77.742 254.905,77.538 261.627,65.521 C258.368,63.281 251.85,59.818 248.795,58.596 C245.739,57.373 245.943,57.577 245.739,51.874 C245.536,46.17 245.128,35.579 244.72,32.727 C244.313,29.875 212.741,29.875 207.853,32.727 L207.853,32.727 Z" fill="#000000"></path>
                <path d="M209.89,32.727 C209.89,32.727 209.89,38.634 209.279,44.337 C209.076,46.985 208.872,48.614 208.465,50.651 C208.261,51.874 215.39,56.761 217.427,67.557 C227.204,89.351 249.814,78.556 259.183,68.168 C255.924,65.927 250.628,62.872 244.518,60.428 C241.462,59.205 242.888,56.558 242.685,50.855 C242.481,45.152 241.666,36.8 241.259,33.745 C240.85,30.69 214.779,29.875 209.89,32.727 L209.89,32.727 Z" fill="#EFEFEF"></path>
                <path d="M207.853,32.727 C207.853,32.727 207.649,36.394 207.039,40.671 C209.686,43.318 213.149,46.985 215.798,49.226 C217.631,50.856 222.111,50.652 226.186,50.652 C229.852,50.652 233.111,51.059 234.537,50.245 C237.797,48.615 242.481,44.542 245.129,41.486 C244.926,37.82 244.722,34.357 244.519,32.727 C244.313,29.875 212.741,29.875 207.853,32.727 L207.853,32.727 Z" fill="#000000"></path>
                <path d="M226.389,48.207 C223.944,48.207 221.092,48.004 218.852,47.596 C217.833,47.393 216.815,46.782 216,46.374 C214.574,45.355 213.148,44.134 211.52,42.911 C208.26,40.467 208.057,39.041 208.057,38.431 C209.483,25.598 207.649,14.803 207.649,14.803 C207.649,14.803 206.223,9.303 213.963,7.877 C221.703,6.451 226.388,6.248 226.388,6.248 C226.388,6.248 231.277,6.248 238.813,7.877 C246.553,9.303 245.127,14.803 245.127,14.803 C245.127,14.803 243.294,25.598 244.72,38.431 C244.72,39.041 244.517,40.467 241.257,42.911 C238.405,44.948 236.165,47.188 233.925,47.596 C231.684,48.004 228.832,48.207 226.389,48.207 L226.389,48.207 Z" fill="#000000"></path>
                <path d="M226.389,0.952 C212.946,0.952 210.297,4.618 206.427,8.692 C205.613,9.71 206.223,15.821 207.65,28.857 L209.483,28.857 C209.483,28.857 208.26,25.19 208.464,20.913 C208.668,16.636 209.483,16.84 208.871,15.821 C208.057,14.598 206.427,12.561 210.094,10.525 C213.76,8.488 219.463,12.154 226.389,12.358 C233.314,12.154 239.221,8.488 242.887,10.525 C246.553,12.561 244.924,14.598 244.11,15.821 C243.295,17.043 244.313,16.635 244.517,20.913 C244.72,25.19 243.498,28.857 243.498,28.857 L245.331,28.857 C246.553,15.821 247.368,10.118 246.757,9.099 C243.294,4.618 239.832,1.155 226.389,0.952 L226.389,0.952 Z" fill="#000000"></path>
                <path d="M290.957,161.457 C290.957,161.457 287.087,173.882 279.551,178.159 C277.921,177.345 278.125,176.123 276.699,174.289 C276.291,173.679 274.865,173.27 274.255,172.66 C273.644,172.049 273.848,171.03 272.829,170.216 C272.014,169.401 271.403,170.012 270.588,169.401 C269.774,168.587 269.569,167.568 268.959,166.958 C268.551,166.55 266.922,166.347 266.515,165.939 C265.496,164.92 256.535,163.087 256.942,161.05 C257.756,157.994 259.386,155.754 259.386,155.754 C259.386,155.754 263.256,150.051 267.125,150.254 C270.995,150.458 274.662,151.273 276.699,149.44 C278.94,147.402 291.569,154.939 290.957,161.457 L290.957,161.457 Z" fill="#000000"></path>
                <path d="M264.478,71.428 C264.478,71.428 277.31,68.372 286.069,76.724 C294.828,85.279 294.216,95.87 291.569,102.388 C293.809,105.036 297.883,112.368 294.828,121.127 C308.271,132.533 302.364,150.051 290.347,161.661 C290.347,161.661 287.495,151.069 276.089,150.458 C276.496,146.385 265.497,143.125 270.589,132.533 C262.849,130.7 263.053,125.404 261.831,118.887 C260.812,112.368 264.478,71.428 264.478,71.428 L264.478,71.428 Z" fill="#000000"></path>
                <path d="M259.793,77.131 C259.793,77.131 274.662,69.595 283.421,78.15 C292.179,86.705 289.734,96.074 287.087,102.592 C289.327,105.239 294.623,112.777 291.364,121.738 C290.753,123.775 286.272,123.775 283.012,129.071 C291.159,124.385 296.252,125.608 298.085,131.514 C300.937,140.68 294.622,151.679 289.123,157.79 C289.123,157.586 288.919,157.382 288.919,157.179 C288.105,160.235 287.086,166.141 280.976,172.659 C277.92,175.918 275.476,175.511 272.013,174.696 C267.94,173.677 266.514,171.843 260.811,168.789 C257.552,166.956 259.385,164.715 259.385,162.882 C259.385,162.475 259.792,161.863 260.404,161.049 C260.811,160.03 262.033,158.402 263.866,156.568 C263.866,156.568 266.514,152.902 270.385,153.105 C274.255,153.309 278.328,152.495 279.347,151.476 L279.347,151.476 C279.347,144.347 271.2,144.143 274.051,131.922 C274.255,131.311 275.274,130.292 278.532,129.885 C273.643,128.866 271.403,128.662 267.94,125.404 C265.496,123.164 263.663,120.312 263.051,116.646 C261.83,110.332 259.793,77.131 259.793,77.131 L259.793,77.131 Z" fill="#EFEFEF"></path>
                <path d="M216.815,64.299 C215.593,62.669 209.279,54.522 197.261,51.263 C193.798,50.244 191.558,53.096 188.096,55.133 C187.077,54.522 182.596,52.485 180.152,53.91 C177.708,55.335 176.079,56.762 173.634,57.78 C172.411,57.169 169.153,57.169 166.505,58.187 C163.857,59.002 159.783,60.835 155.913,66.131 C153.469,74.89 199.094,68.371 199.094,68.371 L216.815,64.299 L216.815,64.299 Z" fill="#000000"></path>
                <path d="M217.223,64.299 C210.704,62.058 211.723,54.522 197.261,53.3 C194.409,53.096 192.576,55.336 190.539,56.762 C191.558,57.781 192.576,59.41 193.187,61.039 C191.354,59.003 188.095,56.354 184.835,55.743 C181.78,55.133 179.743,57.373 176.484,59.003 C177.094,59.613 177.706,60.632 178.52,61.855 C175.668,60.022 173.632,59.411 169.762,60.836 C167.114,61.65 162.022,63.891 158.152,69.391 C155.708,78.15 199.297,68.372 199.297,68.372 L217.223,64.299 L217.223,64.299 Z" fill="#88CE02"></path>
                <path d="M255.516,67.558 C255.516,67.558 255.516,65.317 255.312,63.281 C255.312,62.874 253.683,61.855 253.683,61.448 L253.276,61.04 C253.276,61.04 256.535,59.207 258.979,60.226 C261.626,61.04 263.052,64.503 263.052,64.503 C267.737,62.874 268.144,64.707 270.385,67.151 C275.274,66.132 275.884,67.965 278.94,72.447 C278.94,72.447 275.274,71.836 268.145,73.057 C261.219,74.075 255.516,67.354 255.516,67.558 L255.516,67.558 Z" fill="#000000"></path>
                <path d="M254.701,66.539 C254.701,66.539 255.923,65.52 255.515,65.316 C257.755,64.094 260.811,62.669 262.237,66.539 C266.922,64.909 267.533,67.15 269.773,69.595 C275.476,66.947 275.883,70.205 276.291,71.631 C274.458,71.631 271.811,71.835 268.144,72.242 C261.219,73.261 254.497,66.335 254.701,66.539 L254.701,66.539 Z" fill="#88CE02"></path>
                <path d="M185.448,61.447 C185.448,61.447 197.058,65.52 206.835,64.909 C216.612,64.095 233.314,63.28 242.276,68.576 C242.276,68.576 251.442,65.316 259.997,67.557 C268.553,69.797 284.236,84.463 279.552,99.943 C279.144,100.962 276.496,102.591 273.441,103.61 C273.441,103.61 275.071,110.535 272.219,116.238 C269.367,121.738 263.053,132.33 262.849,146.995 L262.849,146.995 C262.646,149.439 262.239,154.531 261.831,156.975 C245.943,156.365 221.501,150.457 197.466,150.865 C197.669,148.218 197.873,146.588 198.077,143.94 L198.687,143.94 C197.465,137.218 197.058,133.755 195.835,128.663 C188.095,123.775 179.947,118.072 173.023,107.276 C166.301,96.48 185.448,61.447 185.448,61.447 L185.448,61.447 Z" fill="#000000"></path>
                <path d="M264.071,171.438 C264.071,171.438 276.7,216.657 261.831,235.6 C261.831,235.6 264.071,244.358 258.979,253.728 C258.164,257.801 257.145,261.468 256.535,265.541 C253.887,282.447 249.405,289.576 248.183,316.666 L235.961,316.463 C235.961,316.463 234.535,296.909 230.258,286.521 C227.815,280.615 218.24,272.67 218.649,264.727 C219.056,258.616 220.278,253.524 230.667,245.376 C231.481,233.563 219.667,222.359 221.501,178.363 L264.071,171.438 L264.071,171.438 Z" fill="#000000"></path>
                <path d="M260.405,169.604 C263.664,190.38 271.2,221.137 257.553,236.209 C258.163,239.061 258.571,243.135 257.756,247.819 C257.349,250.263 256.534,252.911 255.516,255.762 C253.479,260.651 252.664,267.78 252.053,272.057 C249.405,288.963 249.405,289.779 248.183,316.869 L235.961,316.665 C235.961,316.665 234.535,297.111 230.258,286.724 C227.815,280.817 222.722,275.725 222.315,267.781 C221.908,261.671 226.185,249.45 236.37,249.857 C235.759,225.211 224.352,230.099 221.297,178.77 L260.405,169.604 L260.405,169.604 Z" fill="#EFEFEF"></path>
                <path d="M185.448,61.447 C185.448,61.447 189.929,62.873 194.817,63.28 C199.706,63.687 205.002,63.28 209.686,63.076 C219.463,62.262 233.314,61.243 242.48,66.539 C242.48,66.539 247.572,64.909 253.072,65.316 C255.516,65.52 257.961,67.557 260.812,68.372 C269.774,70.612 278.329,85.481 274.458,98.925 C274.051,99.944 271.199,98.925 267.94,99.944 C268.55,102.796 268.959,109.314 265.699,116.239 C262.237,123.165 257.756,132.127 258.57,149.237 C237.183,148.218 227.61,146.793 206.426,145.774 C204.593,138.237 203.37,130.701 203.167,126.831 C206.019,125.405 207.647,124.184 209.889,121.739 C203.779,122.758 201.334,122.35 197.667,120.313 C194.001,118.276 187.483,111.758 184.224,107.481 C183.817,107.073 181.577,113.794 176.485,113.999 C174.651,111.351 182.391,103.814 180.965,100.963 C175.874,90.574 185.448,61.447 185.448,61.447 L185.448,61.447 Z" fill="#EFEFEF"></path>
                <path d="M262.033,152.698 C262.033,152.698 262.44,160.031 262.44,161.864 C262.44,163.901 264.07,170.011 264.273,172.863 C262.033,176.733 252.256,185.492 234.535,188.751 C217.018,192.417 193.798,164.92 193.798,164.92 C194.409,162.272 196.446,154.531 197.872,150.458 C198.076,150.051 198.483,149.032 198.483,148.625 C200.317,145.977 262.033,152.698 262.033,152.698 L262.033,152.698 Z" fill="#000000"></path>
                <path d="M257.553,153.31 C257.553,158.402 258.367,162.069 258.979,165.328 C259.997,171.235 261.626,175.105 261.626,178.975 C261.626,190.788 246.146,188.751 233.109,189.159 C215.592,192.826 200.723,165.328 200.723,165.328 C201.945,160.643 202.76,155.348 204.593,150.866 L204.593,150.866 C204.796,148.422 205.204,145.367 205.407,143.941 C230.257,143.941 247.774,145.367 257.959,146.384 C258.367,148.625 257.96,152.495 257.553,153.31 L257.553,153.31 L257.553,153.31 Z" fill="#EFEFEF"></path>
                <path d="M237.998,179.585 C237.998,179.585 227.203,155.55 194.816,162.68 C187.077,184.474 176.688,209.528 183.41,236.618 C176.688,245.784 168.948,250.877 168.948,267.782 C168.948,284.688 169.763,287.54 169.763,287.54 L193.594,288.763 C193.594,288.763 201.334,278.783 204.389,267.987 C205.204,264.931 206.019,259.432 205.408,253.118 C206.222,251.896 209.685,249.045 210.093,243.545 C210.093,243.545 221.703,237.435 228.425,222.566 C234.74,209.12 233.11,197.51 237.998,179.585 L237.998,179.585 Z" fill="#000000"></path>
                <path d="M237.998,179.585 C237.388,177.345 229.24,155.347 199.094,161.864 C181.374,209.12 187.892,228.674 190.539,237.228 C178.521,252.504 173.022,255.763 175.467,286.724 L191.355,286.724 C198.687,275.114 200.317,270.836 200.724,255.56 C200.724,254.949 198.484,256.782 196.854,258.819 C198.077,252.505 201.539,251.283 204.187,247.413 C205.409,245.783 206.427,243.339 206.427,240.08 C220.685,230.507 225.981,218.489 229.036,206.064 C231.481,197.51 234.332,183.455 237.998,179.585 L237.998,179.585 Z" fill="#EFEFEF"></path>
                <path d="M187.688,146.792 C187.688,146.792 193.188,146.995 198.077,148.625 C202.762,150.254 202.762,151.272 204.595,153.31 C206.428,155.348 210.909,158.402 210.095,161.457 C209.687,163.087 208.669,163.494 207.243,164.92 C206.632,165.531 202.15,170.419 201.132,171.03 C200.521,171.437 199.706,172.049 199.095,172.456 C198.485,172.863 196.652,174.086 196.04,174.493 C194.003,175.512 192.577,176.123 190.337,175.919 C190.337,175.919 185.245,175.715 181.985,172.253 C181.985,172.253 181.578,170.623 182.393,169.809 C182.393,169.809 178.115,166.142 176.893,163.698 C175.67,161.255 175.67,157.792 176.486,155.959 C176.893,154.124 184.836,149.032 187.688,146.792 L187.688,146.792 Z" fill="#000000"></path>
                <path d="M192.781,344.979 L192.17,350.072 C192.17,350.072 190.337,352.312 176.69,352.109 C162.839,351.905 159.173,347.628 157.951,345.387 L157.137,340.091 C157.137,340.091 159.785,336.221 160.396,336.221 C164.877,336.628 180.154,342.739 190.746,344.368 C191.762,344.368 191.965,344.775 192.781,344.979 L192.781,344.979 Z" fill="#000000"></path>
                <path d="M222.315,334.591 C222.315,336.831 222.111,336.831 222.111,339.072 C224.555,340.905 230.667,341.924 242.276,341.719 C259.182,341.312 274.866,346.812 294.012,343.552 L294.216,339.886 L292.383,339.683 L224.555,334.183 L222.315,334.591 L222.315,334.591 Z" fill="#000000"></path>
                <path d="M237.184,341.72 L242.276,341.72 C253.276,341.313 263.664,343.757 274.866,344.368 C280.773,344.164 288.106,342.738 287.495,338.461 L229.648,333.572 C226.185,337.442 228.832,340.701 237.184,341.72 L237.184,341.72 Z" fill="#000000"></path>
                <path d="M170.782,255.968 C172.615,257.19 185.04,264.523 205.205,263.504 C204.797,267.374 205.001,274.911 196.039,288.15 C191.558,294.668 187.687,306.075 186.873,320.537 C187.077,323.796 188.91,326.647 186.466,330.925 C187.28,333.572 190.539,338.868 192.169,342.127 C193.798,345.387 194.613,349.053 183.817,349.257 C172.818,349.46 155.097,348.238 157.542,339.684 C158.765,335.203 162.227,330.518 162.635,328.684 C163.042,326.851 163.042,321.352 166.504,317.685 C169.56,307.501 168.541,297.724 167.931,288.558 C166.912,278.984 166.708,263.708 170.782,255.968 L170.782,255.968 Z" fill="#000000"></path>
                <path d="M189.725,89.963 C204.187,70.612 191.965,55.133 168.746,59.817 C159.376,61.65 150.007,68.169 149.395,79.982 C146.34,80.389 139.415,80.796 135.952,93.425 C133.305,103.202 131.879,105.035 127.193,109.923 C124.138,113.386 127.397,120.515 129.637,125.608 C137.174,143.125 160.394,144.754 176.078,157.994 C181.374,156.568 186.873,150.662 188.503,146.792 C175.263,131.107 178.114,124.997 172.818,116.85 C178.522,114.812 191.558,106.869 189.725,89.963 L189.725,89.963 Z" fill="#000000"></path>
                <path d="M186.873,88.741 C187.687,87.518 189.113,84.871 189.725,83.852 C189.929,83.648 192.169,87.518 192.373,87.315 C197.872,78.352 199.298,65.316 192.983,64.094 C191.557,63.89 188.91,63.28 186.669,62.464 C182.596,61.038 178.93,61.038 172.411,62.261 C163.449,63.89 154.487,70.408 154.487,79.778 C154.487,80.389 160.8,82.222 162.634,89.759 C159.578,85.481 154.282,80.796 147.968,84.87 C141.246,89.147 144.709,98.924 135.747,109.108 C132.691,112.571 133.099,116.645 136.357,124.792 C141.653,137.625 166.707,144.55 180.354,156.771 C183.613,155.345 185.853,152.086 187.483,149.642 C178.317,140.069 174.65,131.106 172.003,124.588 C168.744,117.052 165.077,112.775 157.948,107.07 C161.615,108.496 164.467,109.922 166.095,111.144 C167.928,112.366 170.576,112.57 173.021,111.755 C181.781,108.702 186.466,96.48 186.873,88.741 L186.873,88.741 Z" fill="#EFEFEF"></path>
                <path d="M275.477,92 C274.866,99.74 269.163,95.87 266.108,94.444 C259.997,91.796 253.886,89.963 246.757,89.963 C239.628,89.963 230.462,90.574 222.519,92.611 C211.52,95.666 208.26,95.463 203.372,93.018 C198.484,90.37 189.93,83.852 189.93,83.852 C189.93,83.852 189.726,85.889 191.763,88.537 C194.41,91.796 200.318,95.87 208.261,98.517 C212.131,99.74 215.187,98.924 218.65,98.11 C236.778,93.629 255.924,92.814 272.015,102.591 C272.83,102.998 275.682,101.776 276.904,99.943 C278.532,97.296 275.477,92 275.477,92 L275.477,92 Z" fill="#000000"></path>
                <path d="M182.8,169.604 C184.429,170.623 186.466,171.234 188.706,173.067 C188.706,173.067 186.873,173.067 186.059,172.253 C185.04,171.642 183.003,169.809 182.8,169.604 L182.8,169.604 L182.8,169.604 Z" fill="#001423"></path>
                <path d="M241.665,8.081 C241.054,6.248 236.572,2.988 226.185,2.988 C214.982,2.988 211.723,6.451 211.52,8.284 C211.52,8.895 210.705,15.414 210.501,18.061 C210.501,18.061 210.501,21.32 210.704,26.208 C210.908,29.467 211.723,31.3 212.13,35.578 C212.537,40.058 213.76,42.91 216,46.577 C217.019,47.187 217.833,47.799 218.852,48.003 C222.926,48.817 230.055,49.021 233.925,48.003 C236.165,47.392 239.017,43.522 239.628,40.059 C240.442,35.782 241.257,32.726 241.461,30.079 C241.868,27.432 242.072,21.524 242.275,19.894 C242.887,15.414 241.868,8.488 241.665,8.081 L241.665,8.081 Z" fill="#EFEFEF"></path>
                <path d="M220.278,259.838 C220.278,259.838 231.074,264.523 257.757,260.449 C257.757,260.449 250.221,298.335 253.684,317.277 C253.684,317.277 257.146,322.166 282.811,331.535 C282.811,331.535 294.217,334.387 293.81,340.091 C293.81,340.091 294.217,341.313 280.367,340.905 C266.517,340.497 253.48,338.053 244.314,338.053 C235.148,338.053 225.371,338.46 223.742,335.813 C221.909,333.369 224.149,327.054 226.797,323.387 C229.65,319.518 228.834,316.665 228.631,309.741 C228.018,291.613 214.167,272.874 220.278,259.838 L220.278,259.838 Z" fill="#000000"></path>
                <path d="M218.037,263.301 C216.611,265.338 218.24,273.077 220.277,280.614 C222.314,288.15 226.796,292.632 227.814,305.056 C228.832,317.277 229.036,318.907 225.573,326.035 C222.11,333.163 221.092,339.682 233.109,339.886 C245.126,340.09 251.645,339.682 263.866,341.516 C276.088,343.349 280.365,343.96 287.087,342.942 C293.809,341.924 295.234,339.682 292.383,337.646 C289.531,335.609 277.717,333.369 272.625,329.294 C267.736,325.628 253.886,319.517 253.683,317.888 C253.072,312.388 252.868,292.427 253.886,285.909 C254.905,279.39 256.33,270.021 256.738,267.577 C257.146,265.133 259.182,262.688 255.719,263.503 C252.257,264.317 239.221,266.151 229.444,265.54 C219.667,264.93 218.649,262.689 218.037,263.301 L218.037,263.301 Z" fill="#88CE02"></path>
                <path d="M224.963,326.24 C228.425,327.869 233.518,329.092 237.388,329.092 C237.388,329.092 235.961,335.814 238.202,339.887 C240.442,343.961 221.907,341.517 221.907,341.517 L221.093,327.055 L224.963,326.24 L224.963,326.24 Z" fill="#000000" opacity="0.3"></path>
                <path d="M278.94,343.757 C282.199,342.738 284.44,339.072 281.792,335.61 C278.94,332.147 276.496,331.536 280.162,331.333 C283.829,331.129 297.272,339.276 297.272,339.276 L290.346,345.59 L278.94,343.757 L278.94,343.757 Z" fill="#000000" opacity="0.3"></path>
                <path d="M217.426,271.244 C222.111,272.874 229.24,273.281 235.351,273.077 C241.461,272.874 250.627,272.058 256.535,270.022 C262.441,267.985 259.997,272.262 259.997,272.262 L256.738,275.318 C256.738,275.318 248.998,278.373 236.37,278.17 C221.501,277.966 217.019,276.337 217.019,276.337 L217.426,271.244 L217.426,271.244 Z" fill="#000000" opacity="0.3"></path>
                <path d="M217.833,281.429 C222.519,283.059 229.647,283.466 235.758,283.262 C241.868,283.059 250.016,283.059 255.923,280.818 C258.367,280.004 256.942,283.466 256.942,283.466 L255.923,285.299 C255.923,285.299 247.979,288.151 235.554,287.946 C220.685,287.743 218.037,286.52 218.037,286.52 L217.833,281.429 L217.833,281.429 Z" fill="#000000" opacity="0.3"></path>
                <path d="M220.278,259.838 C220.278,259.838 237.999,266.152 257.961,261.875 C257.961,261.875 250.221,298.335 253.684,317.074 C253.684,317.074 257.146,321.962 282.811,331.332 C282.811,331.332 294.217,334.184 293.81,339.887 C293.81,339.887 294.217,341.11 280.367,340.701 C266.516,340.294 253.48,337.849 244.314,337.849 C235.148,337.849 225.371,338.257 223.742,335.609 C221.909,333.165 224.149,326.85 226.797,323.184 C229.65,319.314 228.834,316.462 228.631,309.537 C228.018,291.613 214.167,272.874 220.278,259.838 L220.278,259.838 Z" fill-opacity="0" fill="#000000"></path>
                <path d="M220.278,259.838 C220.278,259.838 237.999,265.948 257.961,261.671 C257.961,261.671 250.221,298.335 253.684,317.074 C253.684,317.074 257.146,321.962 282.811,331.332 C282.811,331.332 294.217,334.184 293.81,339.887 C293.81,339.887 294.217,341.11 280.367,340.701 C266.516,340.294 253.276,336.424 244.314,337.849 C234.741,339.479 225.371,338.868 223.742,335.609 C222.316,332.962 224.149,326.85 226.797,323.184 C229.65,319.314 228.834,316.462 228.631,309.537 C228.018,291.613 214.167,272.874 220.278,259.838 L220.278,259.838 Z" fill-opacity="0" fill="#000000"></path>
                <path d="M204.39,138.645 C204.39,140.071 220.278,148.014 229.036,149.644 C237.795,151.273 256.127,149.644 258.978,149.033 L258.57,151.885 C258.57,151.885 236.776,155.144 220.074,150.663 C203.371,146.182 205.205,145.163 205.205,145.163 L204.39,138.645 L204.39,138.645 Z" fill="#000000"></path>
                <g transform="translate(160.000000, 258.000000)" fill="#EFEFEF">
                    <path d="M10.374,54.389 C12.818,55.612 21.577,57.852 27.28,56.63 C28.094,56.426 27.28,42.575 29.521,36.261 C32.78,27.502 38.076,20.373 40.519,4.894 C31.964,4.079 22.188,1.838 17.095,0.208 C10.578,20.17 12.819,37.279 10.374,54.389 L10.374,54.389 Z"></path>
                    <path d="M24.022,67.222 C25.448,67.629 26.466,69.258 26.874,68.241 C27.688,66.407 25.448,62.945 25.244,60.501 C25.244,60.297 25.244,60.501 25.244,60.297 C23.411,58.668 10.986,58.464 11.801,59.278 C10.375,61.926 8.135,61.519 7.321,66.815 C6.914,69.462 10.173,67.222 13.227,67.018 C7.728,70.684 1.414,75.37 0.395,79.443 C-0.827,85.146 1.21,86.776 7.321,89.832 C12.617,91.054 18.931,91.258 23.819,91.054 C29.319,90.035 30.338,87.388 28.708,83.721 C26.262,78.221 24.633,71.092 24.022,67.222 L24.022,67.222 Z"></path>
                </g>
                <path d="M186.262,60.632 C192.984,64.502 202.354,63.484 205.816,63.28 C206.631,63.28 214.779,61.854 215.186,62.057 C216,62.261 216,62.872 216,62.872 C216,62.872 212.945,64.501 206.02,64.908 C199.502,65.315 191.762,64.908 187.485,62.872 C182.392,60.632 186.262,60.632 186.262,60.632 L186.262,60.632 Z" fill="#000000"></path>
                <path d="M255.516,64.502 C256.738,65.316 264.682,68.372 268.145,72.038 C271.2,75.298 269.571,75.094 268.959,74.279 C268.145,73.26 261.83,68.983 259.386,67.965 C256.942,66.947 253.886,65.113 253.886,64.706 C253.886,64.299 255.516,64.502 255.516,64.502 L255.516,64.502 Z" fill="#000000"></path>
                <path d="M185.243,149.032 C191.15,148.625 197.261,150.051 201.131,154.124 C203.168,156.161 206.427,158.401 206.02,160.438 C206.02,161.049 204.797,162.679 203.78,163.901 C203.169,164.715 201.336,166.548 200.724,167.16 C199.91,167.771 197.058,170.012 196.447,170.419 C195.836,170.827 195.021,171.846 194.41,172.049 C192.374,173.068 190.133,172.253 188.096,171.235 C186.06,170.216 188.504,170.012 186.263,168.383 C180.764,164.513 177.708,161.864 179.949,154.328 C180.152,152.902 182.392,151.272 185.243,149.032 L185.243,149.032 Z" fill="#EFEFEF"></path>
            </g>
            <path d="M138.304,105.388 C119.972,112.721 73.327,135.942 60.088,143.071 L60.088,143.071 C71.087,149.996 76.179,166.698 77.809,183.604 C78.012,185.234 78.216,186.66 78.42,188.289 C78.623,189.715 78.827,190.733 79.03,191.345 C79.03,191.549 79.03,191.956 79.234,192.159 C91.252,159.366 134.229,124.739 135.859,122.091 C136.673,120.869 134.84,115.573 137.692,110.482 C141.359,103.962 148.489,101.11 138.304,105.388 L138.304,105.388 Z" fill="#000000" opacity="0.4"></path>
            <path d="M181.893,259.172 C191.262,240.433 191.466,222.508 191.262,201.528 C191.262,192.769 197.576,180.344 194.318,183.807 C182.096,197.453 151.34,223.119 129.138,224.544 C160.302,223.526 172.523,239.21 181.893,259.172 L181.893,259.172 Z" fill="#000000" opacity="0.4"></path>
            <path d="M42.163,160.383 C53.773,152.032 113.861,120.054 128.323,115.572 C142.784,110.887 138.303,105.387 138.303,105.387 C138.303,105.387 79.641,130.644 44.607,152.439" fill="#000000"></path>
            <path d="M213.26,101.518 C208.575,99.685 204.909,105.185 206.131,110.481 C207.354,115.777 218.353,121.683 217.741,141.034 C217.334,156.922 213.871,163.439 213.871,163.439 L206.131,153.663 C206.131,153.663 204.909,131.664 202.261,128.405 C199.614,125.146 191.262,119.239 188.003,116.184 C184.744,113.128 191.669,109.055 191.262,103.351 C190.855,97.852 194.725,86.853 194.725,86.853 L213.26,101.518 L213.26,101.518 Z" fill="#000000" opacity="0.4"></path>
            <path d="M241.573,188.288 C241.166,203.564 244.629,226.174 246.054,236.97 C247.48,247.765 249.313,248.58 246.054,253.469 C242.795,258.154 238.518,265.894 238.518,265.894 L224.463,264.671 C224.463,264.671 235.666,250.413 236.276,247.765 C236.887,245.118 230.573,224.953 230.573,224.953 L241.573,188.288 L241.573,188.288 Z" fill="#000000" opacity="0.4"></path>
            <path d="M214.483,45.708 C217.335,52.021 220.797,54.873 226.296,56.707 C229.555,57.929 242.387,59.559 247.48,53.855 C249.72,51.207 248.294,44.078 248.294,44.078 L236.684,53.447 L221,50.596 L219.167,45.911 L214.483,45.708 L214.483,45.708 Z" fill="#000000" opacity="0.4"></path>
            <path d="M215.704,59.762 C221,63.225 234.24,66.484 237.906,67.095 C241.572,67.909 247.479,63.225 250.331,62.003 C253.387,60.577 258.683,59.762 264.793,65.262 C265.404,65.873 263.367,68.521 263.367,68.521 C263.163,68.317 261.941,68.317 260.311,67.502 C258.682,66.688 257.256,66.076 254.812,66.28 C244.627,67.502 242.998,70.965 234.036,68.927 C225.074,66.889 222.833,65.261 214.075,65.668" stroke="#000000" stroke-width="1.586" fill="#88CE02"></path>
            <path d="M213.871,60.373 C220.593,63.225 233.629,66.28 237.295,67.095 C240.961,67.91 246.868,64.243 249.72,62.41 C254.813,59.151 261.33,61.799 264.386,65.262 C266.422,67.502 267.238,68.928 267.238,69.539 C267.238,70.353 264.794,69.539 264.794,69.539 C263.368,68.928 261.738,68.725 260.517,67.909 C258.887,67.095 257.257,65.873 254.814,66.076 C244.629,67.299 242.592,70.761 233.834,68.724 C225.076,66.687 222.835,64.854 213.466,65.464" fill="#88CE02"></path>
            <path d="M182.3,250.616 C181.893,250.209 182.707,249.802 182.3,249.802 C179.653,249.802 175.986,247.765 173.948,244.913 C165.19,232.285 152.357,223.934 129.137,224.545 C94.306,225.359 80.455,211.102 77.808,183.808 C76.382,168.939 72.308,154.477 63.957,146.329 L59.068,149.385 C68.437,157.532 71.493,170.772 73.53,188.9 C76.789,216.194 98.787,228.823 124.452,229.23 C151.135,229.637 160.708,235.137 170.688,248.581 C173.947,252.858 177.614,254.284 180.465,254.895 L182.3,250.616 L182.3,250.616 Z" fill="#000000"></path>
            <path d="M276.811,119.646 C277.422,122.701 279.051,128.608 282.31,131.459 C283.737,132.885 283.94,133.292 282.718,133.292 C281.495,133.292 272.533,132.885 272.533,132.885 L270.089,128.608 L276.811,119.646 L276.811,119.646 Z" fill="#000000" opacity="0.4"></path>
        </g>
    </g>
</svg>
