
<svg width="52px" height="76px" viewBox="-82 12 52 76" version="1.1" xmlns="http://www.w3.org/2000/svg" xmlns:xlink="http://www.w3.org/1999/xlink">
    <g id="noun_451178_cc" stroke="none" stroke-width="1" fill="none" fill-rule="evenodd" transform="translate(-82.000000, 12.000000)">
        <g id="Group" transform="translate(14.000000, 62.000000)" stroke="#FFFFFF">
            <path d="M4.1,8 C2.2,6.9 1.2,6.2 0.2,4.3" id="Shape"></path>
            <path d="M21.1,5.6 C18.9,8.1 15.7,9.7 12.1,9.7 L10.1,9.7 C7.9,9.7 5.8,9.1 4.1,8" id="Shape"></path>
            <path d="M23.6,0.8 C23.2,2.8 22.4,4.1 21.1,5.6" id="Shape"></path>
            <path d="M5.5,8.7 L5.5,12.5 C5.5,12.5 12.3,14.7 18.2,12.5 L18.2,8" id="Shape"></path>
            <path d="M0.2,4.3 L23.6,0.8" id="Shape"></path>
        </g>
        <path d="M51.1,25.6 C51.1,11.7 39.9,0.5 26,0.5 C12.1,0.5 0.9,11.7 0.9,25.6 C0.9,35 6,43.1 13.6,47.4 L13.6,58.7 L38.2,58.7 L38.2,47.6 C45.8,43.3 51.1,35.1 51.1,25.6 L51.1,25.6 Z" id="Shape" stroke="#FFFFFF"></path>
        <path d="M13.7,62.7 L37.6,60.8" id="Shape" stroke="#FFFFFF"></path>
        <path d="M13.7,62.7 L13.7,60.8" id="Shape" stroke="#FFFFFF"></path>
        <path d="M13.7,60.8 L37.6,60.8" id="Shape" stroke="#FFFFFF"></path>
        <rect id="Rectangle-path" stroke="#FFFFFF" x="23.7" y="37.2" width="4" height="4.2"></rect>
        <path d="M23.7,34.3 L27.7,34.3 L27.7,31.9 C27.7,31.9 28,30.9 29,28.5 L31.8,24.5 C31.8,24.5 35.7,17.1 28.3,13.4 C28.3,13.4 24,11.3 20.4,14.8 C20.4,14.8 17.5,17.2 18.2,21 L22,21.1 C22,21.1 21.5,15.4 27.1,17.1 C27.1,17.1 30.7,19.1 27.6,23.5 C24.5,27.9 24,29.1 24,29.1 C24,29.1 23.7,30 23.6,32 L23.6,34.3 L23.7,34.3 L23.7,34.3 Z" id="Shape" stroke="#FFFFFF"></path>
    </g>
</svg>
