
<svg width="1920px" height="1080px" viewBox="0 0 1920 1080" version="1.1" xmlns="http://www.w3.org/2000/svg" xmlns:xlink="http://www.w3.org/1999/xlink">
    <!-- Generator: Sketch 40 (33762) - http://www.bohemiancoding.com/sketch -->
    <desc>Created with Sketch.</desc>
    <defs></defs>
    <path d="M4.79616347e-14,0 L1920,0 L1920,1080 L4.79616347e-14,1080 L4.79616347e-14,0 Z M1745.32063,118.520381 L1745.32063,618.915005 C1745.32063,645.290575 1742.79301,669.74232 1731.05434,689.576049 C1719.46974,709.305675 1701.27251,722.480968 1686.07762,731.363048 L1250.32688,985.420504 C1245.9837,987.935636 1239.65422,991.2711 1230.53895,992.570307 C1198.48768,997.138353 1201.04862,960.240037 1201.04862,960.240037 L1201.04862,449.95978 C1202.1771,431.958266 1201.06527,406.423849 1211.6713,387.235559 C1222.17739,368.097239 1243.01884,356.321092 1260.29163,346.30637 L1696.09234,96.3630701 C1700.43136,93.802133 1706.6484,90.9372147 1714.8892,87.5392883 C1714.8892,87.5392883 1745.32063,80.3436796 1745.32063,118.520381 Z M1227.82294,319.724099 C1220.81482,323.78245 1212.00212,325.874284 1201.38679,326.030449 C1190.72133,326.203965 1181.39772,323.940543 1173.34657,319.24211 L968.31019,201.455458 C963.981924,198.584729 961.213377,196.194061 960.048891,194.200553 C957.155026,189.168583 957.338182,185.416777 960.525096,182.868017 C963.783345,180.315401 966.366808,178.499265 968.387308,177.336706 L1174.04063,57.7956129 C1182.02624,53.1550186 1191.06257,50.8742446 1201.18628,51.0053457 C1211.32734,51.1518705 1220.12075,53.0798283 1227.634,56.7583717 L1433.51098,176.06811 C1437.86238,178.915704 1440.60972,181.325651 1441.7742,183.324943 C1444.08197,187.335095 1443.78506,190.811203 1440.87192,193.861232 C1437.94142,196.957532 1435.47749,199.020447 1433.48013,200.186862 L1227.82294,319.724099 Z" id="Combined-Shape" stroke="none" fill="#928475" fill-rule="evenodd"></path>
</svg>
