
<svg width="1920px" height="1080px" viewBox="0 0 1920 1080" version="1.1" xmlns="http://www.w3.org/2000/svg" xmlns:xlink="http://www.w3.org/1999/xlink">
    <!-- Generator: Sketch 40 (33762) - http://www.bohemiancoding.com/sketch -->
    <desc>Created with Sketch.</desc>
    <defs></defs>
    <path d="M588.523894,244.734468 L746.242089,113.192533 L738.528638,104 L571.684283,244 L570,244 L570.808983,244.73447 L570.000479,245.412889 L571.556229,245.412889 L738.528172,397.005513 L746.241623,387.059403 L588.523894,244.734468 Z M1022.56941,801.152411 C1008.85694,820.997308 985.946946,834.000042 960,834.000042 C918.026359,834.000042 884,799.973683 884,758.000042 C884,725.934847 903.857746,698.507678 931.946338,687.345433 C910.203436,642.856548 898,592.853428 898,540.000042 C898,354.432366 1048.43232,204.000042 1234,204.000042 C1419.56768,204.000042 1570,354.432366 1570,540.000042 C1570,725.567718 1419.56768,876.000042 1234,876.000042 C1153.88028,876.000042 1080.31022,847.957632 1022.56941,801.152411 Z M0,0 L1920,0 L1920,1080 L0,1080 L0,0 Z M848.5,905.000042 C868.106109,905.000042 884,889.10615 884,869.500042 C884,849.893933 868.106109,834.000042 848.5,834.000042 C828.893891,834.000042 813,849.893933 813,869.500042 C813,889.10615 828.893891,905.000042 848.5,905.000042 Z M1635,188.192533 L1778.87955,320.412889 L1794.95272,320.412889 L1642.00055,179 L1635,188.192533 Z M1778.87956,321 L1794.95273,321 L1642.00055,474.005513 L1635,464.059403 L1778.87956,321 Z" id="Combined-Shape" stroke="none" fill="#FFFFFF" fill-rule="evenodd"></path>
</svg>
